<svg xmlns="http://www.w3.org/2000/svg" width="256" height="256"><path fill-opacity=".016" d="M0 128.004v128.004l128.25-.254 128.25-.254.254-127.75L257.008 0H0v128.004m.485.496c0 70.4.119 99.053.265 63.672.146-35.38.146-92.98 0-128C.604 29.153.485 58.1.485 128.5" fill="#212121" fill-rule="evenodd"/><path fill-opacity=".315" d="M108.297 35.996c-7.884 1.657-14.056 6.036-18.025 12.788C87.796 52.997 87.447 54.727 87 65l-.5 11.5-20 .5c-19.459.486-20.123.573-24.558 3.179-6.227 3.662-12.247 10.445-14.536 16.38-1.779 4.613-1.906 8.127-1.906 52.941v48l2.476 5c3.157 6.375 9.149 12.367 15.524 15.524l5 2.476H128c79.003 0 79.528-.013 84-2.127 6.797-3.212 12.56-8.777 15.689-15.149l2.811-5.724v-98l-2.666-5c-3.37-6.321-10.023-12.802-15.834-15.425-3.998-1.805-6.577-2.034-23.122-2.053L170.257 77l-.462-10.75c-.387-9.024-.874-11.553-3.035-15.75-3.235-6.285-6.891-9.774-13.26-12.653-4.515-2.042-6.745-2.284-23-2.497-9.9-.131-19.892.161-22.203.646" fill="#212121" fill-rule="evenodd"/><path fill-opacity=".599" d="M104.215 37.257c-4.483 1.436-11.837 8.105-14.462 13.115-1.743 3.326-2.242 6.313-2.566 15.378L86.784 77H68.93c-15.43 0-18.584.273-23.222 2.008-7.383 2.763-12.996 7.88-16.64 15.171L26 100.319v47.663c0 55.421-.207 53.959 8.926 63.092 9.921 9.921 4.544 9.335 89.074 9.706 78.015.342 83.051.104 90.558-4.273 5.748-3.352 11.808-10.287 14.036-16.066 1.776-4.605 1.906-8.102 1.906-51.441 0-42.238-.165-46.974-1.804-51.671-2.299-6.589-8.011-13.08-14.841-16.863L208.5 77.5l-19.75-.325L169 76.85v-9.747c0-12.286-1.739-17.684-7.579-23.524-6.83-6.831-10.299-7.597-33.849-7.477-11.04.056-21.55.576-23.357 1.155m18.786 96.866C117.267 136.41 113 142.565 113 148.549c0 8.976 7.899 16.173 16.664 15.185 15.138-1.706 18.88-21.627 5.351-28.484-4.756-2.411-8.025-2.717-12.014-1.127" fill="#212121" fill-rule="evenodd"/><path fill-opacity=".971" d="M104.969 37.536c-5.953 1.835-12.241 7.328-15.064 13.161-1.797 3.711-2.364 6.933-2.714 15.421l-.442 10.729-18.624.335c-22.242.401-25.923 1.534-34.123 10.506C25.973 96.473 26 96.264 26 149.144c0 44.353.067 45.96 2.143 51.509 2.861 7.648 9.581 14.352 17.266 17.227 5.783 2.164 5.895 2.166 84.441 1.893l78.65-.273 4.222-2.256c6.364-3.401 11.107-7.996 14.092-13.654l2.686-5.09.287-47.917c.247-41.17.069-48.557-1.262-52.464-3.355-9.845-10.343-16.503-20.485-19.514C204.016 77.41 198.344 77 185.818 77H169v-8.818c0-12.233-2.019-18.479-7.861-24.321-6.846-6.846-11.29-7.877-33.571-7.791-12.458.048-19.475.503-22.599 1.466m5.254 20.021c-2.015 1.411-2.223 2.392-2.223 10.5V77h41v-8.045c0-7.209-.255-8.301-2.455-10.5-2.399-2.4-2.811-2.455-18.277-2.455-12.703 0-16.261.307-18.045 1.557M50.36 99.46c-4.28 2.998-4.436 4.918-4.141 50.8l.281 43.696 2.772 2.772 2.773 2.772 75.559.269 75.559.268 3.418-3.418L210 193.2v-89.354l-2.923-2.923L204.154 98h-75.855c-64.888 0-76.155.211-77.939 1.46m66.719 15.124c-25.465 9.255-32.769 40.413-13.916 59.367 2.385 2.398 6.812 5.528 9.837 6.955 4.776 2.252 6.816 2.594 15.5 2.594 9.493 0 10.321-.174 16.326-3.43 7.339-3.979 12.356-9.32 16.033-17.07 2.219-4.676 2.607-6.848 2.592-14.5-.016-7.852-.385-9.757-2.896-14.938-6.066-12.514-17.047-19.704-30.947-20.26-5.648-.226-9.449.163-12.529 1.282m4.336 19.837c-3.954 1.722-7.12 5.771-8.49 10.859-2.036 7.558 3.427 16.342 11.557 18.587 9.977 2.755 20.413-6.234 19.247-16.579-1.22-10.822-12.315-17.22-22.314-12.867" fill="#212121" fill-rule="evenodd"/></svg>